<svg width="15" height="16" viewBox="0 0 15 16" fill="none" xmlns="http://www.w3.org/2000/svg">
<path d="M7.5 0.914062C5.5183 0.937924 3.62451 1.73422 2.22313 3.13285C0.821761 4.53148 0.0239086 6.42157 0 8.39939C0.0239086 10.3772 0.821761 12.2673 2.22313 13.6659C3.62451 15.0646 5.5183 15.8608 7.5 15.8847C9.4817 15.8608 11.3755 15.0646 12.7769 13.6659C14.1782 12.2673 14.9761 10.3772 15 8.39939C14.9761 6.42157 14.1782 4.53148 12.7769 3.13285C11.3755 1.73422 9.4817 0.937924 7.5 0.914062ZM11.7857 8.93405H8.03571V12.6767H6.96429V8.93405H3.21429V7.86472H6.96429V4.12206H8.03571V7.86472H11.7857V8.93405Z" fill="#383838"/>
</svg>
