<svg width="15" height="16" viewBox="0 0 15 16" fill="none" xmlns="http://www.w3.org/2000/svg">
<path d="M15 4.2003C15 4.37917 14.929 4.55181 14.8005 4.68548C14.672 4.81914 14.4949 4.90454 14.3029 4.92547L14.2105 4.93058H13.5434L12.5716 14.0736C12.5187 14.5697 12.2682 15.0299 11.8688 15.3647C11.4694 15.6994 10.9497 15.8848 10.4108 15.8847H4.58921C4.05028 15.8848 3.53058 15.6994 3.13121 15.3647C2.73184 15.0299 2.48133 14.5697 2.42842 14.0736L1.45658 4.93058H0.789474C0.580092 4.93058 0.379286 4.85364 0.231231 4.71668C0.0831764 4.57973 0 4.39398 0 4.2003C0 4.00662 0.0831764 3.82087 0.231231 3.68392C0.379286 3.54697 0.580092 3.47003 0.789474 3.47003H4.73684C4.73684 3.13437 4.80831 2.80201 4.94718 2.4919C5.08604 2.1818 5.28957 1.90003 5.54615 1.66269C5.80274 1.42534 6.10734 1.23707 6.44259 1.10862C6.77783 0.980174 7.13714 0.914063 7.5 0.914062C7.86286 0.914063 8.22217 0.980174 8.55742 1.10862C8.89266 1.23707 9.19726 1.42534 9.45385 1.66269C9.71043 1.90003 9.91396 2.1818 10.0528 2.4919C10.1917 2.80201 10.2632 3.13437 10.2632 3.47003H14.2105C14.4199 3.47003 14.6207 3.54697 14.7688 3.68392C14.9168 3.82087 15 4.00662 15 4.2003ZM9.27632 6.5737C9.13323 6.5737 8.99499 6.62163 8.88716 6.70863C8.77933 6.79562 8.7092 6.91579 8.68974 7.04692L8.68421 7.1214V12.2333L8.68974 12.3078C8.70924 12.4389 8.77938 12.559 8.88721 12.646C8.99504 12.733 9.13326 12.7809 9.27632 12.7809C9.41937 12.7809 9.55759 12.733 9.66542 12.646C9.77325 12.559 9.8434 12.4389 9.8629 12.3078L9.86842 12.2333V7.1214L9.8629 7.04692C9.84344 6.91579 9.7733 6.79562 9.66547 6.70863C9.55764 6.62163 9.4194 6.5737 9.27632 6.5737ZM5.72368 6.5737C5.5806 6.5737 5.44236 6.62163 5.33453 6.70863C5.2267 6.79562 5.15656 6.91579 5.13711 7.04692L5.13158 7.1214V12.2333L5.13711 12.3078C5.1566 12.4389 5.22675 12.559 5.33458 12.646C5.44241 12.733 5.58063 12.7809 5.72368 12.7809C5.86674 12.7809 6.00496 12.733 6.11279 12.646C6.22062 12.559 6.29076 12.4389 6.31026 12.3078L6.31579 12.2333V7.1214L6.31026 7.04692C6.2908 6.91579 6.22067 6.79562 6.11284 6.70863C6.00501 6.62163 5.86677 6.5737 5.72368 6.5737ZM7.5 2.37461C7.18593 2.37461 6.88472 2.49002 6.66264 2.69545C6.44055 2.90088 6.31579 3.1795 6.31579 3.47003H8.68421C8.68421 3.1795 8.55945 2.90088 8.33736 2.69545C8.11528 2.49002 7.81407 2.37461 7.5 2.37461Z" fill="#383838"/>
</svg>
