<svg width="51" height="50" viewBox="0 0 51 50" fill="none" xmlns="http://www.w3.org/2000/svg">
<g clip-path="url(#clip0)">
<path d="M50.4657 25.576C50.4657 23.8766 50.3279 22.168 50.0339 20.4961H26.4531V30.1231H39.9567C39.3964 33.228 37.5959 35.9747 34.9595 37.7201V43.9666H43.0157C47.7466 39.6124 50.4657 33.1821 50.4657 25.576Z" fill="#4285F4"/>
<path d="M26.4441 50.0019C33.1867 50.0019 38.8729 47.7881 43.0159 43.9666L34.9597 37.7201C32.7182 39.245 29.8246 40.1085 26.4533 40.1085C19.9312 40.1085 14.4011 35.7083 12.4169 29.7925H4.10352V36.2319C8.3475 44.674 16.9916 50.0019 26.4441 50.0019Z" fill="#34A853"/>
<path d="M12.446 29.7921C11.3988 26.6872 11.3988 23.3251 12.446 20.2202V13.7808H4.1418C0.595962 20.8449 0.595962 29.1675 4.1418 36.2316L12.446 29.7921Z" fill="#FBBC04"/>
<path d="M26.2957 9.89513C29.8599 9.84001 33.3047 11.1812 35.886 13.6431L43.0236 6.50545C38.504 2.26147 32.5055 -0.0718042 26.2957 0.00168472C16.8432 0.00168472 8.19906 5.32963 3.95508 13.7809L12.2593 20.2203C14.2343 14.2953 19.7736 9.89513 26.2957 9.89513Z" fill="#EA4335"/>
</g>
<defs>
<clipPath id="clip0">
<rect width="50" height="50" fill="white" transform="translate(0.970703)"/>
</clipPath>
</defs>
</svg>
