<svg width="55" height="23" viewBox="0 0 55 23" fill="none" xmlns="http://www.w3.org/2000/svg">
<path d="M42.4966 7.43114C40.2014 7.43114 38.3283 9.08955 38.3283 11.1217C38.3283 13.1539 40.2014 14.8123 42.4966 14.8123C44.7919 14.8123 46.665 13.1539 46.665 11.1217C46.665 9.08955 44.7919 7.43114 42.4966 7.43114ZM54.9986 11.1217C54.9986 9.59344 55.0142 8.079 54.9173 6.55348C54.8204 4.78156 54.3638 3.20898 52.9004 1.91326C51.4338 0.614774 49.6607 0.213323 47.6594 0.127495C45.9333 0.0416678 44.2228 0.055511 42.4998 0.055511C40.7736 0.055511 39.0631 0.0416678 37.3401 0.127495C35.3388 0.213323 33.5626 0.617542 32.0992 1.91326C30.6326 3.21175 30.1792 4.78156 30.0822 6.55348C29.9853 8.08176 30.0009 9.59621 30.0009 11.1217C30.0009 12.6472 29.9853 14.1644 30.0822 15.69C30.1792 17.4619 30.6357 19.0345 32.0992 20.3302C33.5658 21.6287 35.3388 22.0301 37.3401 22.1159C39.0663 22.2018 40.7768 22.1879 42.4998 22.1879C44.2259 22.1879 45.9364 22.2018 47.6594 22.1159C49.6607 22.0301 51.4369 21.6259 52.9004 20.3302C54.3669 19.0317 54.8204 17.4619 54.9173 15.69C55.0174 14.1644 54.9986 12.65 54.9986 11.1217ZM42.4966 16.8002C38.9474 16.8002 36.0831 14.2641 36.0831 11.1217C36.0831 7.97933 38.9474 5.44326 42.4966 5.44326C46.0458 5.44326 48.9102 7.97933 48.9102 11.1217C48.9102 14.2641 46.0458 16.8002 42.4966 16.8002ZM49.1729 6.53687C48.3442 6.53687 47.675 5.94438 47.675 5.2107C47.675 4.47701 48.3442 3.88452 49.1729 3.88452C50.0016 3.88452 50.6708 4.47701 50.6708 5.2107C50.671 5.38491 50.6324 5.55746 50.5572 5.71846C50.4821 5.87946 50.3717 6.02574 50.2326 6.14893C50.0935 6.27212 49.9282 6.3698 49.7464 6.43637C49.5646 6.50294 49.3697 6.53709 49.1729 6.53687Z" fill="#F8F8F8"/>
<path fill-rule="evenodd" clip-rule="evenodd" d="M12.5 0.0546875C5.59375 0.0546875 0 5.13245 0 11.4016C0 16.4227 3.57812 20.6636 8.54687 22.1671C9.17187 22.2664 9.40625 21.926 9.40625 21.6281C9.40625 21.3586 9.39062 20.465 9.39062 19.5147C6.25 20.0395 5.4375 18.8197 5.1875 18.1815C5.04687 17.8552 4.4375 16.8482 3.90625 16.5787C3.46875 16.3659 2.84375 15.8411 3.89062 15.827C4.875 15.8128 5.57812 16.6496 5.8125 16.99C6.9375 18.7063 8.73437 18.224 9.45312 17.9261C9.5625 17.1886 9.89062 16.6922 10.25 16.4085C7.46875 16.1248 4.5625 15.1461 4.5625 10.8059C4.5625 9.57195 5.04687 8.55072 5.84375 7.75644C5.71875 7.47276 5.28125 6.3097 5.96875 4.74949C5.96875 4.74949 7.01562 4.45163 9.40625 5.91256C10.4062 5.65725 11.4687 5.5296 12.5312 5.5296C13.5937 5.5296 14.6562 5.65725 15.6562 5.91256C18.0469 4.43745 19.0937 4.74949 19.0937 4.74949C19.7812 6.3097 19.3438 7.47276 19.2188 7.75644C20.0156 8.55072 20.5 9.55777 20.5 10.8059C20.5 15.1603 17.5781 16.1248 14.7969 16.4085C15.25 16.7631 15.6406 17.4439 15.6406 18.5077C15.6406 20.0253 15.625 21.2451 15.625 21.6281C15.625 21.926 15.8594 22.2805 16.4844 22.1671C18.9658 21.4066 21.1221 19.9588 22.6496 18.0277C24.1772 16.0965 24.9993 13.7791 25 11.4016C25 5.13245 19.4062 0.0546875 12.5 0.0546875Z" fill="#F8F8F8"/>
</svg>
