<svg width="89" height="30" viewBox="0 0 89 30" fill="none" xmlns="http://www.w3.org/2000/svg">
<path d="M32.416 11.048L31.444 10.916V10.4L33.376 10.172H33.4L33.664 10.352V19.316L34.684 19.412V20H31.444V19.412L32.416 19.304V11.048ZM38.6081 20.132C37.6401 20.132 36.9001 19.816 36.3881 19.184C35.8841 18.552 35.6321 17.708 35.6321 16.652C35.6321 15.956 35.7641 15.344 36.0281 14.816C36.2921 14.288 36.6601 13.88 37.1321 13.592C37.6121 13.304 38.1561 13.16 38.7641 13.16C39.5081 13.16 40.0841 13.368 40.4921 13.784C40.9081 14.192 41.1281 14.78 41.1521 15.548C41.1521 16.036 41.1241 16.408 41.0681 16.664H36.9401C36.9561 17.456 37.1401 18.096 37.4921 18.584C37.8441 19.064 38.3441 19.304 38.9921 19.304C39.3121 19.304 39.6441 19.248 39.9881 19.136C40.3401 19.016 40.6121 18.876 40.8041 18.716L41.0321 19.244C40.8001 19.484 40.4561 19.692 40.0001 19.868C39.5441 20.044 39.0801 20.132 38.6081 20.132ZM39.8321 16.028C39.8561 15.86 39.8681 15.688 39.8681 15.512C39.8601 14.992 39.7481 14.584 39.5321 14.288C39.3241 13.984 38.9921 13.832 38.5361 13.832C38.0721 13.832 37.7001 14 37.4201 14.336C37.1481 14.672 36.9921 15.236 36.9521 16.028H39.8321ZM43.0234 14.264L42.1594 14.048V13.4L43.8754 13.184H43.9114L44.1634 13.4V13.904L44.1514 14.192C44.4394 13.936 44.8194 13.704 45.2914 13.496C45.7634 13.288 46.2154 13.184 46.6474 13.184C47.1514 13.184 47.5394 13.28 47.8114 13.472C48.0914 13.664 48.2874 13.96 48.3994 14.36C48.5114 14.752 48.5674 15.284 48.5674 15.956V19.316L49.4074 19.4V20H46.5634V19.412L47.3074 19.316V15.944C47.3074 15.472 47.2754 15.104 47.2114 14.84C47.1474 14.568 47.0274 14.368 46.8514 14.24C46.6754 14.104 46.4194 14.036 46.0834 14.036C45.7954 14.036 45.4874 14.108 45.1594 14.252C44.8314 14.396 44.5394 14.564 44.2834 14.756V19.304L45.0994 19.412V20H42.2674V19.412L43.0234 19.304V14.264ZM50.3802 19.412L51.1122 19.304V14.264L50.2482 14.048V13.4L51.9642 13.184L52.1802 13.34L52.2522 13.82L52.2402 14.204C52.5202 13.948 52.9002 13.716 53.3802 13.508C53.8682 13.292 54.3042 13.184 54.6882 13.184C55.1202 13.184 55.4682 13.256 55.7322 13.4C55.9962 13.544 56.1962 13.768 56.3322 14.072C56.5882 13.856 56.9442 13.656 57.4002 13.472C57.8642 13.28 58.2962 13.184 58.6962 13.184C59.1922 13.184 59.5802 13.28 59.8602 13.472C60.1402 13.656 60.3362 13.948 60.4482 14.348C60.5682 14.74 60.6282 15.268 60.6282 15.932V19.304L61.4922 19.412V20H58.6362V19.412L59.3802 19.304V15.968C59.3802 15.504 59.3442 15.136 59.2722 14.864C59.2082 14.584 59.0802 14.376 58.8882 14.24C58.7042 14.104 58.4362 14.036 58.0842 14.036C57.8202 14.036 57.5402 14.096 57.2442 14.216C56.9482 14.328 56.6962 14.464 56.4882 14.624C56.5602 14.936 56.5962 15.38 56.5962 15.956V19.304L57.4482 19.412V20H54.5442V19.412L55.3362 19.304V15.944C55.3362 15.464 55.3042 15.092 55.2402 14.828C55.1842 14.564 55.0722 14.368 54.9042 14.24C54.7362 14.104 54.4802 14.036 54.1362 14.036C53.8482 14.036 53.5402 14.108 53.2122 14.252C52.8922 14.396 52.6122 14.564 52.3722 14.756V19.304L53.1762 19.412V20H50.3802V19.412ZM62.4536 18.2C62.4536 17.448 62.8296 16.896 63.5816 16.544C64.3336 16.184 65.2856 15.992 66.4376 15.968V15.632C66.4376 15.256 66.3976 14.96 66.3176 14.744C66.2376 14.528 66.0976 14.372 65.8976 14.276C65.7056 14.172 65.4296 14.12 65.0696 14.12C64.6616 14.12 64.2936 14.18 63.9656 14.3C63.6456 14.412 63.3256 14.552 63.0056 14.72L62.7056 14.096C62.8096 14.008 63.0016 13.892 63.2816 13.748C63.5616 13.604 63.8856 13.476 64.2536 13.364C64.6216 13.252 64.9896 13.196 65.3576 13.196C65.9256 13.196 66.3736 13.276 66.7016 13.436C67.0376 13.588 67.2776 13.836 67.4216 14.18C67.5656 14.524 67.6376 14.984 67.6376 15.56V19.412H68.3456V19.94C68.1856 19.98 67.9816 20.02 67.7336 20.06C67.4936 20.1 67.2816 20.12 67.0976 20.12C66.8736 20.12 66.7216 20.084 66.6416 20.012C66.5616 19.948 66.5216 19.8 66.5216 19.568V19.172C66.2816 19.412 65.9856 19.632 65.6336 19.832C65.2896 20.032 64.8976 20.132 64.4576 20.132C63.8816 20.132 63.4016 19.968 63.0176 19.64C62.6416 19.304 62.4536 18.824 62.4536 18.2ZM64.9736 19.316C65.1816 19.316 65.4216 19.252 65.6936 19.124C65.9656 18.996 66.2136 18.844 66.4376 18.668V16.604C65.5656 16.604 64.9056 16.74 64.4576 17.012C64.0176 17.276 63.7976 17.624 63.7976 18.056C63.7976 18.488 63.9016 18.808 64.1096 19.016C64.3256 19.216 64.6136 19.316 64.9736 19.316ZM69.9362 11.048L69.0002 10.916V10.4L70.9082 10.172H70.9202L71.1842 10.352V16.22L71.1602 16.928L73.9322 14.06L73.0322 13.892V13.34H75.9362V13.892L74.9882 14.06L73.2242 15.776L75.5042 19.316L76.2482 19.412V20H73.3322V19.412L74.0882 19.304L72.3962 16.52L71.1602 17.744L71.1842 18.356V19.304L72.0362 19.412V20H69.1802V19.412L69.9362 19.304V11.048ZM79.5675 20.132C78.5995 20.132 77.8595 19.816 77.3475 19.184C76.8435 18.552 76.5915 17.708 76.5915 16.652C76.5915 15.956 76.7235 15.344 76.9875 14.816C77.2515 14.288 77.6195 13.88 78.0915 13.592C78.5715 13.304 79.1155 13.16 79.7235 13.16C80.4675 13.16 81.0435 13.368 81.4515 13.784C81.8675 14.192 82.0875 14.78 82.1115 15.548C82.1115 16.036 82.0835 16.408 82.0275 16.664H77.8995C77.9155 17.456 78.0995 18.096 78.4515 18.584C78.8035 19.064 79.3035 19.304 79.9515 19.304C80.2715 19.304 80.6035 19.248 80.9475 19.136C81.2995 19.016 81.5715 18.876 81.7635 18.716L81.9915 19.244C81.7595 19.484 81.4155 19.692 80.9595 19.868C80.5035 20.044 80.0395 20.132 79.5675 20.132ZM80.7915 16.028C80.8155 15.86 80.8275 15.688 80.8275 15.512C80.8195 14.992 80.7075 14.584 80.4915 14.288C80.2835 13.984 79.9515 13.832 79.4955 13.832C79.0315 13.832 78.6595 14 78.3795 14.336C78.1075 14.672 77.9515 15.236 77.9115 16.028H80.7915ZM83.2868 19.412L84.1868 19.34V14.264L83.3228 14.048V13.4L84.9788 13.184H85.0028L85.2668 13.4V13.616L85.2308 14.552H85.2668C85.3468 14.416 85.4908 14.24 85.6988 14.024C85.9068 13.808 86.1748 13.612 86.5028 13.436C86.8308 13.252 87.1868 13.16 87.5708 13.16C87.7308 13.16 87.8628 13.18 87.9668 13.22V14.564C87.9108 14.524 87.8188 14.488 87.6908 14.456C87.5708 14.416 87.4348 14.396 87.2828 14.396C86.6188 14.396 86.0028 14.6 85.4348 15.008V19.328L86.9588 19.424V20H83.2868V19.412Z" fill="white"/>
<circle cx="15" cy="15" r="15" fill="#8F71FF"/>
<path d="M8.572 11.828L7.6 11.684V11.084H11.044V11.684L9.856 11.828V19.292L12.952 19.184L13.66 17.168L14.392 17.276L13.972 20H7.576V19.412L8.572 19.292V11.828ZM21.7335 20C21.5975 20 21.4215 19.84 21.2055 19.52C20.9975 19.192 20.6975 18.68 20.3055 17.984C20.2575 17.896 20.1215 17.66 19.8975 17.276C19.6815 16.884 19.4775 16.548 19.2855 16.268C19.1015 15.988 18.9375 15.768 18.7935 15.608L17.5815 16.976V19.292L18.6735 19.412V20H15.3015V19.412L16.2975 19.292V11.828L15.3135 11.684V11.084H18.5775V11.684L17.5815 11.828V16.028L21.1095 11.828L20.1015 11.684V11.084H23.0655V11.684L22.1415 11.828L19.5495 14.732C19.8295 14.972 20.1255 15.32 20.4375 15.776C20.7575 16.232 21.1455 16.82 21.6015 17.54C21.9935 18.156 22.2775 18.596 22.4535 18.86C22.6375 19.116 22.7815 19.256 22.8855 19.28L23.4495 19.412V20H21.7335Z" fill="white"/>
</svg>
