<svg width="16" height="16" viewBox="0 0 16 16" fill="none" xmlns="http://www.w3.org/2000/svg">
<path d="M10.1356 0.858399C10.2062 0.858274 10.2761 0.872028 10.3413 0.898877C10.4065 0.925725 10.4658 0.965142 10.5158 1.01487L15.8311 6.31994C15.9317 6.42043 15.9883 6.5567 15.9883 6.69879C15.9883 6.84089 15.9317 6.97716 15.8311 7.07765C15.3157 7.59208 14.68 7.70783 14.2172 7.70783C14.0271 7.70783 13.8574 7.68854 13.7232 7.66603L10.3579 11.0248C10.4465 11.3811 10.504 11.7443 10.5297 12.1105C10.5791 12.8628 10.4954 13.9185 9.75659 14.6559C9.65591 14.7563 9.51937 14.8127 9.377 14.8127C9.23464 14.8127 9.0981 14.7563 8.99741 14.6559L5.95963 11.625L2.5428 15.0352C2.33341 15.2442 1.23384 16.0019 1.02445 15.793C0.815054 15.584 1.57423 14.4854 1.78362 14.2775L5.20046 10.8673L2.16375 7.83536C2.06309 7.73487 2.00655 7.5986 2.00655 7.45651C2.00655 7.31441 2.06309 7.17814 2.16375 7.07765C2.90252 6.3403 3.96022 6.25563 4.71402 6.306C5.0809 6.33166 5.44485 6.38904 5.80178 6.47748L9.16708 3.11975C9.13899 2.95654 9.12462 2.79128 9.12412 2.62568C9.12412 2.16484 9.2401 1.53037 9.75659 1.01487C9.85721 0.914698 9.99352 0.858429 10.1356 0.858399Z" fill="white"/>
</svg>
