<svg width="21" height="22" viewBox="0 0 21 22" fill="none" xmlns="http://www.w3.org/2000/svg">
<path d="M10.504 8.60831C9.76311 8.60831 9.06927 8.88004 8.54393 9.37664C8.02107 9.87324 7.73115 10.5291 7.73115 11.2295C7.73115 11.9299 8.02107 12.5858 8.54393 13.0824C9.06927 13.5767 9.76311 13.8507 10.504 13.8507C11.245 13.8507 11.9388 13.5767 12.4641 13.0824C12.987 12.5858 13.2769 11.9299 13.2769 11.2295C13.2769 10.5291 12.987 9.87324 12.4641 9.37664C12.2075 9.13222 11.9021 8.93843 11.5656 8.80653C11.2292 8.67464 10.8683 8.60726 10.504 8.60831V8.60831ZM20.7208 14.1248L19.1002 12.8154C19.177 12.3703 19.2167 11.9159 19.2167 11.4638C19.2167 11.0117 19.177 10.5549 19.1002 10.1122L20.7208 8.80273C20.8433 8.70366 20.9309 8.57171 20.972 8.42442C21.0132 8.27714 21.006 8.12149 20.9513 7.97819L20.929 7.91728C20.483 6.7383 19.8147 5.64546 18.9565 4.69171L18.9119 4.64252C18.8077 4.52669 18.6688 4.44343 18.5135 4.4037C18.3583 4.36398 18.1939 4.36965 18.0421 4.41999L16.03 5.09696C15.2866 4.52071 14.4589 4.06627 13.5619 3.75004L13.1728 1.76129C13.1435 1.61147 13.0666 1.47364 12.9524 1.36611C12.8382 1.25858 12.6921 1.18644 12.5335 1.15928L12.4666 1.14757C11.178 0.927374 9.8201 0.927374 8.53154 1.14757L8.46463 1.15928C8.30603 1.18644 8.15993 1.25858 8.04574 1.36611C7.93154 1.47364 7.85466 1.61147 7.82531 1.76129L7.43379 3.75941C6.54524 4.07816 5.71751 4.5315 4.98304 5.10164L2.95604 4.41999C2.8043 4.36925 2.63982 4.36337 2.48446 4.40312C2.3291 4.44287 2.19021 4.52637 2.08626 4.64252L2.04165 4.69171C1.18499 5.64648 0.516868 6.73904 0.0691638 7.91728L0.0468617 7.97819C-0.0646484 8.271 0.0270378 8.59894 0.277316 8.80273L1.91775 10.1262C1.84094 10.5666 1.80376 11.0164 1.80376 11.4614C1.80376 11.9112 1.84094 12.3609 1.91775 12.7966L0.282272 14.1201C0.159848 14.2192 0.0722276 14.3511 0.0310619 14.4984C-0.0101039 14.6457 -0.00286447 14.8014 0.0518176 14.9447L0.0741197 15.0056C0.522638 16.1838 1.18426 17.2731 2.04661 18.2311L2.09121 18.2803C2.19542 18.3962 2.33431 18.4794 2.48958 18.5192C2.64485 18.5589 2.80921 18.5532 2.96099 18.5029L4.988 17.8212C5.72644 18.3951 6.54914 18.8496 7.43874 19.1634L7.83027 21.1616C7.85962 21.3114 7.9365 21.4492 8.05069 21.5567C8.16489 21.6643 8.31099 21.7364 8.46959 21.7636L8.5365 21.7753C9.83773 21.9967 11.1703 21.9967 12.4716 21.7753L12.5385 21.7636C12.6971 21.7364 12.8432 21.6643 12.9574 21.5567C13.0716 21.4492 13.1484 21.3114 13.1778 21.1616L13.5668 19.1728C14.4639 18.8542 15.2915 18.4021 16.0349 17.8259L18.0471 18.5029C18.1988 18.5536 18.3633 18.5595 18.5186 18.5197C18.674 18.48 18.8129 18.3965 18.9168 18.2803L18.9615 18.2311C19.8238 17.2684 20.4854 16.1838 20.9339 15.0056L20.9562 14.9447C21.0628 14.6542 20.9711 14.3286 20.7208 14.1248ZM10.504 15.3476C8.09789 15.3476 6.1477 13.5041 6.1477 11.2295C6.1477 8.95499 8.09789 7.11148 10.504 7.11148C12.9102 7.11148 14.8604 8.95499 14.8604 11.2295C14.8604 13.5041 12.9102 15.3476 10.504 15.3476Z" fill="white"/>
</svg>
