<svg width="51" height="50" viewBox="0 0 51 50" fill="none" xmlns="http://www.w3.org/2000/svg">
<g clip-path="url(#clip0)">
<path d="M49.9505 12.8857C49.6678 11.822 49.1107 10.8512 48.335 10.0704C47.5592 9.28968 46.5919 8.72637 45.5301 8.43688C41.621 7.38574 25.996 7.38574 25.996 7.38574C25.996 7.38574 10.3711 7.38574 6.46199 8.43688C5.4001 8.72637 4.43287 9.28968 3.6571 10.0704C2.88133 10.8512 2.32423 11.822 2.04155 12.8857C0.996094 16.8119 0.996094 24.9994 0.996094 24.9994C0.996094 24.9994 0.996094 33.1869 2.04155 37.113C2.32423 38.1767 2.88133 39.1475 3.6571 39.9283C4.43287 40.7091 5.4001 41.2724 6.46199 41.5619C10.3711 42.613 25.996 42.613 25.996 42.613C25.996 42.613 41.621 42.613 45.5301 41.5619C46.5919 41.2724 47.5592 40.7091 48.335 39.9283C49.1107 39.1475 49.6678 38.1767 49.9505 37.113C50.996 33.1869 50.996 24.9994 50.996 24.9994C50.996 24.9994 50.996 16.8119 49.9505 12.8857Z" fill="#FF0302"/>
<path d="M20.9395 32.4343V17.5649L34.0076 24.9996L20.9395 32.4343Z" fill="#FEFEFE"/>
</g>
<defs>
<clipPath id="clip0">
<rect width="50" height="50" fill="white" transform="translate(0.996094 -0.000488281)"/>
</clipPath>
</defs>
</svg>
